HIERARCHY
ROOT Hips
{
	OFFSET 0.000000 0.000000 0.000000
	CHANNELS 6 Xposition Yposition Zposition Zrotation Yrotation Xrotation 
	JOINT LHipJoint
	{
		OFFSET 0.000000 0.000000 0.000000
		CHANNELS 3 Zrotation Yrotation Xrotation
		JOINT LeftUpLeg
		{
			OFFSET 1.363060 -1.794630 0.839290
			CHANNELS 3 Zrotation Yrotation Xrotation
			JOINT LeftLeg
			{
				OFFSET 2.448110 -6.726130 0.000000
				CHANNELS 3 Zrotation Yrotation Xrotation
				JOINT LeftFoot
				{
					OFFSET 2.562200 -7.039590 0.000000
					CHANNELS 3 Zrotation Yrotation Xrotation
					JOINT LeftToeBase
					{
						OFFSET 0.157640 -0.433110 2.322550
						CHANNELS 3 Zrotation Yrotation Xrotation
						End Site
						{
							OFFSET 0.000000 0.000000 0.000000
						}
					}
				}
			}
		}
	}
	JOINT RHipJoint
	{
		OFFSET 0.000000 0.000000 0.000000
		CHANNELS 3 Zrotation Yrotation Xrotation
		JOINT RightUpLeg
		{
			OFFSET -1.305520 -1.794630 0.839290
			CHANNELS 3 Zrotation Yrotation Xrotation
			JOINT RightLeg
			{
				OFFSET -2.542530 -6.985550 0.000000
				CHANNELS 3 Zrotation Yrotation Xrotation
				JOINT RightFoot
				{
					OFFSET -2.568260 -7.056230 0.000000
					CHANNELS 3 Zrotation Yrotation Xrotation
					JOINT RightToeBase
					{
						OFFSET -0.164730 -0.452590 2.363150
						CHANNELS 3 Zrotation Yrotation Xrotation
						End Site
						{
							OFFSET 0.000000 0.000000 0.000000
						}
					}
				}
			}
		}
	}
	JOINT LowerBack
	{
		OFFSET 0.000000 0.000000 0.000000
		CHANNELS 3 Zrotation Yrotation Xrotation
		JOINT Spine
		{
			OFFSET 0.028270 2.035590 -0.193380
			CHANNELS 3 Zrotation Yrotation Xrotation
			JOINT Spine1
			{
				OFFSET 0.056720 2.048850 -0.042750
				CHANNELS 3 Zrotation Yrotation Xrotation
				JOINT Neck
				{
					OFFSET 0.000000 0.000000 0.000000
					CHANNELS 3 Zrotation Yrotation Xrotation
					JOINT Neck1
					{
						OFFSET -0.054170 1.746240 0.172020
						CHANNELS 3 Zrotation Yrotation Xrotation
						JOINT Head
						{
							OFFSET 0.104070 1.761360 -0.123970
							CHANNELS 3 Zrotation Yrotation Xrotation
							End Site
							{
								OFFSET 0.000000 0.000000 0.000000
							}
						}
					}
				}
				JOINT LeftShoulder
				{
					OFFSET 0.000000 0.000000 0.000000
					CHANNELS 3 Zrotation Yrotation Xrotation
					JOINT LeftArm
					{
						OFFSET 3.362410 1.200890 -0.311210
						CHANNELS 3 Zrotation Yrotation Xrotation
						JOINT LeftForeArm
						{
							OFFSET 4.983000 -0.000000 -0.000000
							CHANNELS 3 Zrotation Yrotation Xrotation
							JOINT LeftHand
							{
								OFFSET 3.483560 -0.000000 -0.000000
								CHANNELS 3 Zrotation Yrotation Xrotation
								JOINT LeftFingerBase
								{
									OFFSET 0.000000 0.000000 0.000000
									CHANNELS 3 Zrotation Yrotation Xrotation
									JOINT LeftHandIndex1
									{
										OFFSET 0.715260 -0.000000 -0.000000
										CHANNELS 3 Zrotation Yrotation Xrotation
										End Site
										{
											OFFSET 0.000000 0.000000 0.000000
										}
									}
								}
								JOINT LThumb
								{
									OFFSET 0.000000 0.000000 0.000000
									CHANNELS 3 Zrotation Yrotation Xrotation
									End Site
									{
										OFFSET 0.000000 0.000000 0.000000
									}
								}
							}
						}
					}
				}
				JOINT RightShoulder
				{
					OFFSET 0.000000 0.000000 0.000000
					CHANNELS 3 Zrotation Yrotation Xrotation
					JOINT RightArm
					{
						OFFSET -3.136600 1.374050 -0.404650
						CHANNELS 3 Zrotation Yrotation Xrotation
						JOINT RightForeArm
						{
							OFFSET -5.241900 -0.000000 -0.000000
							CHANNELS 3 Zrotation Yrotation Xrotation
							JOINT RightHand
							{
								OFFSET -3.444170 -0.000000 -0.000000
								CHANNELS 3 Zrotation Yrotation Xrotation
								JOINT RightFingerBase
								{
									OFFSET 0.000000 0.000000 0.000000
									CHANNELS 3 Zrotation Yrotation Xrotation
									JOINT RightHandIndex1
									{
										OFFSET -0.622530 -0.000000 -0.000000
										CHANNELS 3 Zrotation Yrotation Xrotation
										End Site
										{
											OFFSET 0.000000 0.000000 0.000000
										}
									}
								}
								JOINT RThumb
								{
									OFFSET 0.000000 0.000000 0.000000
									CHANNELS 3 Zrotation Yrotation Xrotation
									End Site
									{
										OFFSET 0.000000 0.000000 0.000000
									}
								}
							}
						}
					}
				}
			}
		}
	}
}
MOTION
Frames: 6
Frame Time: 0.008333
0.812436 18.359232 9.664949 -10.579649 -2.968453 14.634822 6.231759 5.055331 -1.136783 -19.216554 -46.547100 19.923904 -3.930234 -2.403136 -3.376383 -14.552363 46.099686 -35.451690 0.875400 5.965200 16.683400 0.132395 -4.296392 -0.055615 23.615074 28.757765 0.024896 3.593014 -0.530536 2.276523 7.916848 -25.145222 -1.571042 -0.013500 0.748900 -2.058100 -1.690459 1.736385 3.248479 19.982847 6.284287 -19.005367 -10.193167 -0.894172 -10.580141 -8.130116 -5.814916 -21.039175 14.311425 -10.991510 43.935268 2.198100 -2.307100 13.147700 -11.428102 -5.891316 2.250597 -84.082409 6.473845 -26.361463 13.167600 -15.578021 -2.470100 -0.142278 1.459589 24.280091 16.788477 -9.128620 -3.267700 -7.125000 0.000000 0.000000 -6.735400 19.108400 4.188300 12.196737 8.019311 2.702793 81.059378 -8.392668 -31.262718 -14.555333 19.260084 -3.089639 1.048339 1.384369 47.635955 6.835543 -29.977413 -3.769800 7.125000 0.000000 0.000000 41.828300 -56.464600 -13.375900 
0.811277 18.357546 9.664949 -11.017847 -2.720250 14.554233 6.473201 5.051091 -1.177037 -19.071314 -46.603193 20.129831 -3.941011 -2.446357 -3.402388 -14.501892 46.020631 -35.526450 0.906800 6.068200 16.982400 0.357366 -4.303480 0.019547 23.888824 28.501870 -0.064730 3.584485 -0.578368 2.343849 7.854238 -25.052230 -1.415948 -0.105100 2.090900 -5.756900 -2.233334 1.805789 3.268747 22.412978 6.714777 -19.063585 -10.967346 -1.071821 -10.500812 -9.727077 -5.931119 -20.139976 14.995022 -10.946947 43.265153 2.596300 -2.311100 13.007900 -11.417382 -5.951040 2.179200 -85.018221 6.586976 -26.517124 13.175884 -15.560004 -2.479185 -0.128184 1.479266 24.093336 16.800258 -9.306455 -3.331600 -7.125000 0.000000 0.000000 -6.733000 18.895800 4.218800 11.731253 8.155268 2.754188 80.825446 -8.532928 -30.905213 -14.461296 19.144608 -3.054064 1.040534 1.371075 47.526015 6.758861 -29.773786 -3.702100 7.125000 0.000000 0.000000 41.548000 -56.315200 -13.103200 
0.809802 18.355860 9.664317 -11.356357 -2.507488 14.532043 6.675736 5.046775 -1.203714 -18.868658 -46.618582 20.146013 -3.945860 -2.480056 -3.415859 -14.475299 45.939468 -35.479117 0.912200 6.085800 17.033500 0.559908 -4.310812 0.082707 24.055539 28.476123 -0.126804 3.581922 -0.611224 2.385345 7.831586 -25.019602 -1.507201 -0.049500 1.435200 -3.947200 -2.759324 1.844574 3.144886 24.563068 7.040491 -19.016538 -11.573138 -1.245460 -10.406817 -11.304290 -6.011728 -19.299046 15.727485 -10.887520 42.569899 3.016000 -2.304700 12.871000 -11.388610 -6.027649 2.102055 -85.953216 6.657638 -26.675866 13.188359 -15.538175 -2.484332 -0.130489 1.490180 24.043593 16.880271 -9.278185 -3.343300 -7.125000 0.000000 0.000000 -6.672500 18.908700 4.178500 11.310393 8.279207 2.793166 80.585794 -8.624198 -30.663136 -14.451394 19.135328 -3.055068 1.034414 1.371293 47.611679 6.999620 -29.706397 -3.824900 7.125000 0.000000 0.000000 41.704100 -56.208200 -13.051200 
0.808643 18.355334 9.664844 -11.572512 -2.358325 14.496790 6.840151 5.046213 -1.213232 -18.804713 -46.638916 20.191411 -3.950887 -2.509462 -3.419333 -14.499274 45.949768 -35.463972 0.903300 6.056800 16.949500 0.728188 -4.319049 0.152252 24.107416 28.411227 -0.208549 3.578725 -0.642438 2.428332 7.808869 -24.981046 -1.505715 -0.048800 1.425800 -3.921300 -3.253048 1.855725 2.942621 26.395560 7.247778 -18.810384 -12.026042 -1.408965 -10.354330 -12.907367 -6.099136 -18.554887 16.516319 -10.860458 41.879903 3.452200 -2.312800 12.739600 -11.347955 -6.104789 2.012510 -86.850897 6.740294 -26.641238 13.231857 -15.550977 -2.495321 -0.150272 1.484756 23.820299 16.959316 -9.112668 -3.306500 -7.125000 0.000000 0.000000 -6.609000 19.085000 4.112100 10.965466 8.376570 2.817501 80.238818 -8.642045 -30.470499 -14.406636 19.085826 -3.045521 1.034487 1.371641 47.730293 7.248242 -29.704156 -3.957700 7.125000 0.000000 0.000000 41.929400 -56.154100 -13.082800 
0.803481 18.360706 9.676116 -11.513246 -2.281066 14.685779 6.938949 5.050389 -1.252973 -19.001714 -46.944823 20.236710 -3.954845 -2.520414 -3.425264 -14.565847 46.129063 -35.723005 0.895600 6.031800 16.876900 0.862092 -4.296039 0.159634 23.804323 28.474155 -0.389676 3.582429 -0.634074 2.349564 7.851535 -25.101429 -1.486865 -0.081900 1.846400 -5.081300 -3.881568 1.796028 2.471632 27.705246 7.395509 -18.929755 -12.187291 -1.523447 -10.017721 -14.470731 -6.163637 -17.727072 17.358231 -10.860534 41.164887 3.895900 -2.331500 12.589300 -11.288465 -6.223965 1.948409 -87.709429 6.843047 -26.365573 13.347719 -15.620358 -2.510608 -0.200255 1.413995 23.241733 16.828412 -8.439918 -3.047800 -7.125000 0.000000 0.000000 -6.701300 19.873300 4.051700 10.728521 8.457799 2.857384 79.767411 -8.640413 -30.441429 -14.236882 18.866753 -2.989448 1.047028 1.353065 47.837418 7.220783 -29.666257 -3.928800 7.125000 0.000000 0.000000 41.850200 -56.132700 -13.028100 
0.794316 18.371136 9.696975 -11.362031 -2.177424 15.069580 7.103358 5.063940 -1.305690 -19.392249 -47.593752 20.322428 -3.964523 -2.543077 -3.438300 -14.621462 46.417265 -36.379015 0.905200 6.062900 16.967100 1.108563 -4.263038 0.175816 23.185867 28.806837 -0.649713 3.596440 -0.583013 2.118264 7.975499 -25.418701 -1.639024 -0.016100 0.820400 -2.254800 -5.080941 1.634773 1.516956 30.136687 7.573273 -18.982581 -12.329406 -1.779575 -9.518360 -17.536586 -6.209843 -16.350941 19.051548 -10.781961 39.944942 4.831600 -2.329300 12.394400 -11.170385 -6.444784 1.820876 -89.371499 6.949475 -26.489814 13.577456 -15.785653 -2.550951 -0.279613 1.296912 22.575844 16.670947 -7.266370 -2.617400 -7.125000 0.000000 0.000000 -6.818600 21.236800 3.913000 10.282668 8.583309 2.917860 78.698837 -8.739285 -30.092572 -13.919700 18.481392 -2.893747 1.073494 1.316476 47.902568 7.023646 -29.696578 -3.805700 7.125000 0.000000 0.000000 41.659500 -56.203100 -13.028000 
